<svg width="309" height="102" viewBox="0 0 309 102" fill="none" xmlns="http://www.w3.org/2000/svg">
<g clip-path="url(#clip0)">
<path d="M91.2 14C91.4667 14.2 91.5 14.5333 91.3 15C91.1 15.4 90.7667 15.8333 90.3 16.3C89.9 16.7 89.4 17.0667 88.8 17.4C88.2 17.7333 87.6667 17.9 87.2 17.9C85.6 17.7667 83.9667 17.6 82.3 17.4C80.7 17.2 79.1 16.9667 77.5 16.7C76.1 17.1 74.8667 17.7 73.8 18.5C72.8 19.2333 71.8667 20.2333 71 21.5C70.2 22.7667 69.4333 24.3667 68.7 26.3C68.0333 28.1667 67.3333 30.4667 66.6 33.2C66.1333 34.7333 65.7 36.2333 65.3 37.7C64.9 39.1667 64.4333 40.5667 63.9 41.9H74.2C74.5333 42.0333 74.6333 42.2 74.5 42.4C74.4333 42.5333 74.1333 42.6667 73.6 42.8C71.8667 42.8667 70.1667 42.9333 68.5 43C66.8333 43 65.1667 43.0333 63.5 43.1C59.5 54.1 54.4 62.1667 48.2 67.3C42.0667 72.4333 34.7 75 26.1 75C21.3 75 17.5667 73.8667 14.9 71.6C12.3 69.3333 11 66.2 11 62.2C11 59.8667 11.6667 57.7 13 55.7C14.4 53.7 16.3667 52.1333 18.9 51C19.1667 51 19.3667 51.1333 19.5 51.4C19.6333 51.6 19.6333 51.8 19.5 52C18.3 52.9333 17.4 53.9667 16.8 55.1C16.2667 56.1667 16 57.6667 16 59.6C16 61.3333 16.3 62.9333 16.9 64.4C17.5 65.8 18.4333 67.0667 19.7 68.2C20.9667 69.2667 22.6 70.1 24.6 70.7C26.6 71.3 29 71.6 31.8 71.6C35 71.6 37.8 71.2 40.2 70.4C42.6667 69.6 44.9 68.1667 46.9 66.1C48.9 63.9667 50.7667 61.0667 52.5 57.4C54.2333 53.7333 56 49.0333 57.8 43.3C54.4 43.4333 51.1 43.6333 47.9 43.9C44.7 44.1667 41.5667 44.5333 38.5 45C38.3 44.9333 38.3333 44.8 38.6 44.6C38.8667 44.3333 39.2333 44.0667 39.7 43.8C40.2333 43.5333 40.8 43.3 41.4 43.1C42 42.8333 42.4667 42.6667 42.8 42.6C47.8 42.3333 52.9333 42.1333 58.2 42C58.5333 40.9333 58.8667 39.8333 59.2 38.7C59.5333 37.5667 59.8667 36.4 60.2 35.2C61.6667 29.8 63.5333 25.6667 65.8 22.8C68.0667 19.8667 71.1667 17.7 75.1 16.3C71.5 15.7667 68.0333 15.3 64.7 14.9C61.4333 14.4333 58.3 14.2 55.3 14.2C50.3 14.2 46.1667 15.1667 42.9 17.1C39.6333 18.9667 37.2333 22.2 35.7 26.8C35.5 27 35.3 27.0333 35.1 26.9C34.9 26.7667 34.8 26.5333 34.8 26.2C36.2667 21.4667 39.1333 17.6667 43.4 14.8C47.7333 11.9333 53.0667 10.5 59.4 10.5C61.8667 10.5 64.3333 10.6333 66.8 10.9C69.3333 11.1667 71.9 11.5 74.5 11.9C77.1 12.2333 79.7667 12.6 82.5 13C85.3 13.4 88.2 13.7333 91.2 14ZM89.3531 45.1C89.1531 45.3 88.9198 45.3 88.6531 45.1C88.4531 44.9 88.2865 44.6333 88.1531 44.3C88.0198 43.9 87.9531 43.5 87.9531 43.1C87.9531 42.6333 88.0531 42.2333 88.2531 41.9C88.9865 40.9667 90.0531 39.8 91.4531 38.4C92.9198 36.9333 94.4198 35.7 95.9531 34.7C96.1531 34.6333 96.3531 34.7 96.5531 34.9C96.7531 35.0333 96.7865 35.1667 96.6531 35.3C95.2531 36.5667 93.9198 38.1 92.6531 39.9C91.3865 41.6333 90.2865 43.3667 89.3531 45.1ZM82.6531 53.5C81.2531 54.2333 79.9531 55.1 78.7531 56.1C78.5531 56.2333 78.3865 56.2 78.2531 56C78.1198 55.8 78.0865 55.6 78.1531 55.4C78.5531 55 79.1198 54.5333 79.8531 54C80.6531 53.4667 81.5198 52.9333 82.4531 52.4C83.4531 51.8 84.4531 51.2667 85.4531 50.8C86.4531 50.2667 87.3865 49.8 88.2531 49.4C88.9198 49.4 89.1865 49.7 89.0531 50.3C86.7198 59.5667 84.0531 67.3333 81.0531 73.6C78.0531 79.8667 74.8531 84.9 71.4531 88.7C68.0531 92.5667 64.5531 95.3 60.9531 96.9C57.3531 98.5667 53.7531 99.4 50.1531 99.4C47.8198 99.4 46.1865 98.4667 45.2531 96.6C44.3198 94.8 44.2198 92.4667 44.9531 89.6C45.0865 89.4 45.2531 89.3 45.4531 89.3C45.6531 89.3 45.7865 89.4333 45.8531 89.7C45.5198 91.6333 46.1531 93.2 47.7531 94.4C49.2865 95.6667 51.6531 96.3 54.8531 96.3C57.5198 96.3 60.0531 95.7333 62.4531 94.6C64.8531 93.4667 67.1865 91.3333 69.4531 88.2C71.7198 85.0667 73.9198 80.7 76.0531 75.1C78.2531 69.5667 80.4531 62.3667 82.6531 53.5ZM101.185 75C98.3852 75 96.9852 73.4667 96.9852 70.4C96.9852 69.3333 97.0852 68.1 97.2852 66.7C97.5518 65.3 97.9185 63.8667 98.3852 62.4C98.9185 60.8667 99.5185 59.3333 100.185 57.8C100.852 56.2667 101.652 54.8 102.585 53.4C101.852 53.8667 101.152 54.3667 100.485 54.9C99.8185 55.3667 99.2185 55.8667 98.6852 56.4C98.4852 56.5333 98.2852 56.5 98.0852 56.3C97.9518 56.0333 97.9518 55.8 98.0852 55.6C99.2185 54.4 100.818 53.1667 102.885 51.9C105.018 50.6333 107.052 49.6333 108.985 48.9C109.318 48.9 109.552 49 109.685 49.2C109.885 49.3333 109.918 49.5333 109.785 49.8C107.652 52.6 105.918 55.6333 104.585 58.9C103.318 62.1667 102.685 65.3333 102.685 68.4C102.685 70.3333 103.285 71.3 104.485 71.3C105.352 71.3 106.418 70.7333 107.685 69.6C108.952 68.4 110.285 66.8667 111.685 65C113.085 63.0667 114.485 60.9 115.885 58.5C117.352 56.1 118.685 53.6667 119.885 51.2C120.085 50.8 120.652 50.4 121.585 50C122.585 49.6 123.585 49.4 124.585 49.4C125.585 49.4 125.885 49.6667 125.485 50.2C124.552 51.9333 123.718 53.5667 122.985 55.1C122.318 56.5667 121.752 58.0333 121.285 59.5C120.818 60.9667 120.452 62.4667 120.185 64C119.985 65.4667 119.885 67.1 119.885 68.9C119.885 71.0333 120.452 72.1 121.585 72.1C122.718 72.1 123.985 71.1 125.385 69.1C125.585 68.9667 125.785 68.9667 125.985 69.1C126.185 69.2333 126.252 69.4333 126.185 69.7C125.052 71.4333 123.785 72.7667 122.385 73.7C121.052 74.5667 119.818 75 118.685 75C115.885 75 114.485 73.3667 114.485 70.1C114.485 66.7 115.085 63.3333 116.285 60C113.752 64.6 111.085 68.2667 108.285 71C105.485 73.6667 103.118 75 101.185 75ZM179.088 2.29999C180.355 2.29999 181.422 2.63333 182.288 3.3C183.222 3.9 183.922 4.7 184.388 5.7C184.855 6.7 185.055 7.8 184.988 9C184.988 10.2 184.722 11.4 184.188 12.6C183.655 13 183.322 12.9 183.188 12.3C183.055 10.9667 182.322 9.8 180.988 8.79999C179.655 7.79999 177.522 7.3 174.588 7.3C172.788 7.3 171.122 7.46666 169.588 7.79999C168.055 8.13333 166.588 8.8 165.188 9.8C163.855 10.8 162.522 12.2667 161.188 14.2C159.855 16.0667 158.455 18.5667 156.988 21.7C155.522 24.8333 153.955 28.7 152.288 33.3C150.622 37.9 148.788 43.4 146.788 49.8C148.455 49.7333 150.155 49.7 151.888 49.7C153.622 49.7 155.322 49.7 156.988 49.7C157.322 49.8333 157.455 50.0333 157.388 50.3C157.322 50.5667 157.022 50.7333 156.488 50.8C154.955 50.8667 153.322 50.9333 151.588 51C149.855 51 148.122 51.0667 146.388 51.2C146.255 51.5333 146.122 51.9 145.988 52.3C145.922 52.6333 145.822 52.9667 145.688 53.3C143.088 61.6333 140.288 68.7333 137.288 74.6C134.288 80.4 131.188 85.1333 127.988 88.8C124.722 92.4667 121.422 95.1333 118.088 96.8C114.755 98.4667 111.455 99.3 108.188 99.3C105.988 99.3 104.322 98.7667 103.188 97.7C101.988 96.6333 101.388 95.2667 101.388 93.6C101.388 91.8 102.022 90.1667 103.288 88.7C103.488 88.5 103.688 88.4667 103.888 88.6C104.022 88.7333 104.088 88.9 104.088 89.1C103.755 89.7667 103.622 90.4667 103.688 91.2C103.755 92 104.055 92.7333 104.588 93.4C105.055 94.0667 105.788 94.6 106.788 95C107.788 95.4667 109.088 95.7 110.688 95.7C113.755 95.7 116.488 95.2333 118.888 94.3C121.288 93.4333 123.622 91.5 125.888 88.5C128.088 85.5667 130.322 81.3333 132.588 75.8C134.922 70.2667 137.522 62.8333 140.388 53.5L140.988 51.7C139.722 51.8333 138.522 52 137.388 52.2C136.255 52.3333 135.155 52.5 134.088 52.7C133.755 52.6333 133.688 52.4667 133.888 52.2C134.088 51.9333 134.388 51.6667 134.788 51.4C135.255 51.1333 135.788 50.9 136.388 50.7C136.988 50.4333 137.555 50.2667 138.088 50.2C138.622 50.1333 139.155 50.1 139.688 50.1C140.288 50.0333 140.888 49.9667 141.488 49.9C144.222 41.6333 147.088 34.5 150.088 28.5C153.155 22.5 156.288 17.5667 159.488 13.7C162.688 9.76666 165.922 6.89999 169.188 5.09999C172.522 3.23333 175.822 2.29999 179.088 2.29999ZM167.173 45.1C166.973 45.3 166.74 45.3 166.473 45.1C166.273 44.9 166.107 44.6333 165.973 44.3C165.84 43.9 165.773 43.5 165.773 43.1C165.773 42.6333 165.873 42.2333 166.073 41.9C166.807 40.9667 167.873 39.8 169.273 38.4C170.74 36.9333 172.24 35.7 173.773 34.7C173.973 34.6333 174.173 34.7 174.373 34.9C174.573 35.0333 174.607 35.1667 174.473 35.3C173.073 36.5667 171.74 38.1 170.473 39.9C169.207 41.6333 168.107 43.3667 167.173 45.1ZM160.473 53.5C159.073 54.2333 157.773 55.1 156.573 56.1C156.373 56.2333 156.207 56.2 156.073 56C155.94 55.8 155.907 55.6 155.973 55.4C156.373 55 156.94 54.5333 157.673 54C158.473 53.4667 159.34 52.9333 160.273 52.4C161.273 51.8 162.273 51.2667 163.273 50.8C164.273 50.2667 165.207 49.8 166.073 49.4C166.74 49.4 167.007 49.7 166.873 50.3C164.54 59.5667 161.873 67.3333 158.873 73.6C155.873 79.8667 152.673 84.9 149.273 88.7C145.873 92.5667 142.373 95.3 138.773 96.9C135.173 98.5667 131.573 99.4 127.973 99.4C125.64 99.4 124.007 98.4667 123.073 96.6C122.14 94.8 122.04 92.4667 122.773 89.6C122.907 89.4 123.073 89.3 123.273 89.3C123.473 89.3 123.607 89.4333 123.673 89.7C123.34 91.6333 123.973 93.2 125.573 94.4C127.107 95.6667 129.473 96.3 132.673 96.3C135.34 96.3 137.873 95.7333 140.273 94.6C142.673 93.4667 145.007 91.3333 147.273 88.2C149.54 85.0667 151.74 80.7 153.873 75.1C156.073 69.5667 158.273 62.3667 160.473 53.5ZM179.005 75C176.205 75 174.805 73.4667 174.805 70.4C174.805 69.3333 174.905 68.1 175.105 66.7C175.372 65.3 175.739 63.8667 176.205 62.4C176.739 60.8667 177.339 59.3333 178.005 57.8C178.672 56.2667 179.472 54.8 180.405 53.4C179.672 53.8667 178.972 54.3667 178.305 54.9C177.639 55.3667 177.039 55.8667 176.505 56.4C176.305 56.5333 176.105 56.5 175.905 56.3C175.772 56.0333 175.772 55.8 175.905 55.6C177.039 54.4 178.639 53.1667 180.705 51.9C182.839 50.6333 184.872 49.6333 186.805 48.9C187.139 48.9 187.372 49 187.505 49.2C187.705 49.3333 187.739 49.5333 187.605 49.8C185.472 52.6 183.739 55.6333 182.405 58.9C181.139 62.1667 180.505 65.3333 180.505 68.4C180.505 70.3333 181.105 71.3 182.305 71.3C183.172 71.3 184.239 70.7333 185.505 69.6C186.772 68.4 188.105 66.8667 189.505 65C190.905 63.0667 192.305 60.9 193.705 58.5C195.172 56.1 196.505 53.6667 197.705 51.2C197.905 50.8 198.472 50.4 199.405 50C200.405 49.6 201.405 49.4 202.405 49.4C203.405 49.4 203.705 49.6667 203.305 50.2C202.372 51.9333 201.539 53.5667 200.805 55.1C200.139 56.5667 199.572 58.0333 199.105 59.5C198.639 60.9667 198.272 62.4667 198.005 64C197.805 65.4667 197.705 67.1 197.705 68.9C197.705 71.0333 198.272 72.1 199.405 72.1C200.539 72.1 201.805 71.1 203.205 69.1C203.405 68.9667 203.605 68.9667 203.805 69.1C204.005 69.2333 204.072 69.4333 204.005 69.7C202.872 71.4333 201.605 72.7667 200.205 73.7C198.872 74.5667 197.639 75 196.505 75C193.705 75 192.305 73.3667 192.305 70.1C192.305 66.7 192.905 63.3333 194.105 60C191.572 64.6 188.905 68.2667 186.105 71C183.305 73.6667 180.939 75 179.005 75ZM213.809 75C213.209 75 212.709 74.8333 212.309 74.5C211.975 74.1667 211.809 73.5333 211.809 72.6C211.809 72.2 211.942 71.7333 212.209 71.2C212.475 70.6667 212.842 70.1667 213.309 69.7C213.775 69.1667 214.309 68.7333 214.909 68.4C215.509 68.0667 216.109 67.9 216.709 67.9C217.109 67.9 217.475 68.0667 217.809 68.4C218.142 68.6667 218.309 69.0333 218.309 69.5C218.309 70.0333 218.175 70.6333 217.909 71.3C217.642 71.9667 217.275 72.5667 216.809 73.1C216.342 73.6333 215.842 74.1 215.309 74.5C214.775 74.8333 214.275 75 213.809 75ZM248.42 49.4C249.887 49.4 251.054 50.1333 251.92 51.6C252.854 53 253.32 54.6667 253.32 56.6C253.32 59.3333 252.754 61.8333 251.62 64.1C250.554 66.3 249.12 68.2333 247.32 69.9C245.52 71.5 243.454 72.7667 241.12 73.7C238.787 74.5667 236.42 75 234.02 75C232.887 75 231.92 74.8667 231.12 74.6C229.987 77.8667 228.954 81.3667 228.02 85.1C227.154 88.8333 226.72 92.3 226.72 95.5C226.72 97.0333 227.454 97.6333 228.92 97.3C229.454 97.2333 229.954 97.1 230.42 96.9C230.954 96.7 231.454 96.4333 231.92 96.1C232.187 96.1 232.32 96.2333 232.32 96.5C232.387 96.7667 232.354 97.0333 232.22 97.3C231.82 97.5 231.22 97.7 230.42 97.9C229.687 98.1667 228.887 98.4 228.02 98.6C227.154 98.8667 226.287 99.0667 225.42 99.2C224.554 99.3333 223.82 99.4 223.22 99.4C222.687 99.4 222.254 99.2667 221.92 99C221.587 98.7333 221.42 98.3333 221.42 97.8C221.42 94.4 221.987 90.4333 223.12 85.9C224.187 81.4333 225.587 76.8 227.32 72C226.92 71.4667 226.687 71.0333 226.62 70.7C226.554 70.4333 227.054 70.1333 228.12 69.8C228.987 67.4 229.92 65 230.92 62.6C231.92 60.2 232.92 57.8333 233.92 55.5C235.187 52.7667 235.754 51.0667 235.62 50.4C235.554 49.7333 235.154 49.6 234.42 50C233.42 50.5333 232.32 51.4667 231.12 52.8C230.987 52.9333 230.82 52.9 230.62 52.7C230.487 52.4333 230.454 52.2333 230.52 52.1C230.987 51.5667 231.587 51 232.32 50.4C233.054 49.7333 233.82 49.1333 234.62 48.6C235.487 48.0667 236.32 47.6333 237.12 47.3C237.92 46.9 238.62 46.7 239.22 46.7C239.954 46.7 240.42 47.0333 240.62 47.7C240.887 48.3 240.854 48.9667 240.52 49.7C239.654 52.0333 238.52 54.6667 237.12 57.6C237.787 56.6667 238.554 55.7333 239.42 54.8C240.287 53.8 241.187 52.9 242.12 52.1C243.12 51.3 244.154 50.6667 245.22 50.2C246.287 49.6667 247.354 49.4 248.42 49.4ZM236.52 73C238.12 73 239.62 72.7 241.02 72.1C242.42 71.4333 243.62 70.5 244.62 69.3C245.687 68.0333 246.52 66.5 247.12 64.7C247.787 62.8333 248.12 60.7 248.12 58.3C248.12 56.7 247.82 55.4 247.22 54.4C246.62 53.4 245.754 52.9 244.62 52.9C243.087 52.9 241.254 54.2667 239.12 57C236.987 59.7333 235.02 63.5667 233.22 68.5C233.02 69.0333 232.82 69.6 232.62 70.2C232.42 70.7333 232.22 71.3 232.02 71.9C233.087 72.6333 234.587 73 236.52 73ZM304.113 0.699997C305.113 0.699997 305.913 0.966664 306.513 1.5C307.179 1.96666 307.613 2.63333 307.813 3.5C308.079 4.3 308.113 5.23333 307.913 6.3C307.779 7.36667 307.413 8.43333 306.813 9.5C306.679 9.63333 306.513 9.63333 306.313 9.5C306.113 9.36667 305.979 9.2 305.913 9C306.046 8.2 305.746 7.53333 305.013 7C304.346 6.46666 303.279 6.2 301.813 6.2C299.079 6.2 296.313 7.23333 293.513 9.3C290.779 11.3 288.113 13.9667 285.513 17.3C282.913 20.6333 280.479 24.4667 278.213 28.8C275.946 33.1333 273.979 37.6 272.313 42.2C270.646 46.8 269.313 51.3667 268.313 55.9C267.379 60.4333 266.913 64.5667 266.913 68.3C266.913 70.3 267.479 71.3 268.613 71.3C269.413 71.3 270.179 70.9667 270.913 70.3C271.713 69.6333 272.613 68.6333 273.613 67.3C273.813 67.1667 273.979 67.2 274.113 67.4C274.313 67.5333 274.379 67.7333 274.313 68C272.979 70 271.413 71.6667 269.613 73C267.813 74.3333 266.179 75 264.713 75C263.446 75 262.546 74.6333 262.013 73.9C261.546 73.1667 261.313 72.2333 261.313 71.1C261.313 67.9667 261.979 64.0667 263.313 59.4C264.646 54.6667 266.413 49.7 268.613 44.5C270.879 39.2333 273.479 34 276.413 28.8C279.346 23.6 282.379 18.9333 285.513 14.8C288.713 10.6 291.913 7.2 295.113 4.59999C298.313 2 301.313 0.699997 304.113 0.699997Z" fill="#F02A67"/>
</g>
<defs>
<clipPath id="clip0">
<rect width="309" height="102" fill="white"/>
</clipPath>
</defs>
</svg>
