<svg width="278" height="102" viewBox="0 0 278 102" fill="none" xmlns="http://www.w3.org/2000/svg">
<g clip-path="url(#clip0)">
<path d="M13.432 43.732C9.87467 44.2227 6.93067 44.468 4.6 44.468C3.80267 44.468 3.404 44.1613 3.404 43.548C3.404 42.1373 4.35467 40.6653 6.256 39.132C8.21867 37.5373 11.3773 36.1573 15.732 34.992C17.6947 28 19.9333 21.5907 22.448 15.764C16.3147 16.0707 11.2853 18.0947 7.36 21.836C6.37867 22.8173 5.58133 23.584 4.968 24.136C4.35467 24.688 3.80267 24.964 3.312 24.964C2.88267 24.964 2.45333 24.596 2.024 23.86C1.59467 23.124 1.38 22.1427 1.38 20.916C1.44133 16.1933 4.63067 12.36 10.948 9.416C17.2653 6.472 25.0547 5.03066 34.316 5.092L61.916 5.552C63.572 5.552 64.4 6.196 64.4 7.484C64.4 7.852 64.1547 8.52667 63.664 9.508C63.1733 10.428 62.744 11.44 62.376 12.544C61.5787 14.752 59.8613 15.856 57.224 15.856H54.28L42.044 15.764H34.96C34.4693 19.26 32.9973 24.964 30.544 32.876L47.38 33.152C48.3613 33.152 48.852 33.7347 48.852 34.9C48.852 35.268 48.6987 35.912 48.392 36.832C48.0853 37.752 47.8093 38.7027 47.564 39.684C47.0733 41.708 46.0307 42.72 44.436 42.72L30.452 42.076H29.256C28.888 42.076 28.4587 42.1067 27.968 42.168C24.7787 53.8827 23.184 63.144 23.184 69.952C23.184 73.5707 19.6573 75.38 12.604 75.38C11.0707 75.38 10.1507 74.6133 9.844 73.08C9.59867 71.4853 9.476 69.4 9.476 66.824C9.476 61.304 10.7947 53.6067 13.432 43.732ZM67.7408 30.668C68.4768 28.9507 69.6728 28.1227 71.3288 28.184C72.9848 28.184 74.5794 29.38 76.1128 31.772C77.6461 34.1027 78.4128 35.8507 78.4128 37.016C78.4128 38.7333 77.7381 42.4747 76.3888 48.24C75.0394 53.944 73.4141 59.9853 71.5128 66.364C75.9288 63.4813 80.8048 59.28 86.1408 53.76C86.9381 52.9013 87.5514 52.5027 87.9808 52.564C88.8394 52.564 89.2688 53.5147 89.2688 55.416C89.2688 58.9733 87.2448 62.8987 83.1968 67.192C79.1488 71.424 74.0888 74.8893 68.0168 77.588L65.6248 85.04C64.0914 89.7013 62.2208 93.0747 60.0128 95.16C57.1301 97.8587 53.3581 99.208 48.6968 99.208C44.0354 99.208 40.2941 98.0427 37.4727 95.712C34.5901 93.3813 33.1488 90.4987 33.1488 87.064C33.1488 83.6293 35.5408 80.808 40.3247 78.6C42.5327 77.6187 45.0781 76.668 47.9608 75.748C50.7821 74.8893 53.8181 73.9387 57.0688 72.896C57.6821 69.6453 58.2341 66.5173 58.7248 63.512C59.2768 59.7093 61.1168 52.3493 64.2448 41.432C65.7168 36.648 66.8821 33.06 67.7408 30.668ZM79.9768 1.13599C83.7794 1.13599 86.3554 2.57733 87.7048 5.45999C87.5208 9.07866 86.0488 12.636 83.2888 16.132C80.5288 19.628 77.4314 21.3453 73.9968 21.284C72.4021 18.7693 71.6048 15.9787 71.6048 12.912C71.6048 9.84533 72.3408 7.116 73.8128 4.724C75.2848 2.332 77.3394 1.13599 79.9768 1.13599ZM54.6768 82.648C52.4688 83.4453 50.5674 84.0893 48.9728 84.58C47.3781 85.132 45.7527 85.684 44.0967 86.236C42.4407 86.788 41.6127 87.4013 41.6127 88.076C41.6127 89.2413 42.3487 90.2533 43.8207 91.112C45.6608 91.7867 47.0101 92.124 47.8687 92.124C50.4448 92.124 52.7141 88.9653 54.6768 82.648ZM116.986 35.176C116.986 31.0667 120.175 29.012 126.554 29.012C128.149 29.012 129.13 29.5333 129.498 30.576C129.927 31.6187 130.142 33.2133 130.142 35.36C130.142 38.3653 129.467 43.0267 128.118 49.344C126.769 55.6613 126.125 59.924 126.186 62.132C126.186 63.1747 126.523 63.696 127.198 63.696C128.118 63.696 129.253 63.1133 130.602 61.948C131.951 60.7827 133.301 59.5253 134.65 58.176C135.999 56.7653 137.226 55.4773 138.33 54.312C139.495 53.1467 140.293 52.564 140.722 52.564C141.581 52.564 142.01 53.6067 142.01 55.692C142.01 59.9853 139.894 64.1253 135.662 68.112C128.547 72.2827 124.039 74.368 122.138 74.368C121.954 74.368 121.801 74.3373 121.678 74.276C119.347 74.276 117.691 73.5093 116.71 71.976C115.79 70.4427 115.207 68.5107 114.962 66.18C113.735 68.4493 112.049 70.412 109.902 72.068C107.755 73.6627 105.302 74.46 102.542 74.46C97.6966 74.46 93.9552 73.54 91.3179 71.7C88.7419 69.86 87.4539 67.1307 87.4539 63.512C87.4539 61.9173 87.6686 60.4453 88.0979 59.096C88.5886 57.7467 89.3552 56.0907 90.3979 54.128L93.0659 31.496C94.9672 30.024 97.6966 29.288 101.254 29.288C104.075 29.288 105.67 31.128 106.038 34.808C106.345 37.8133 106.191 40.512 105.578 42.904C105.026 45.2347 104.259 48.2093 103.278 51.828C102.297 55.3853 101.806 58.544 101.806 61.304C101.806 63.512 103.186 64.616 105.946 64.616C108.951 64.616 111.558 61.9787 113.766 56.704C115.483 52.656 116.649 48.148 117.262 43.18C117.201 42.6893 117.139 42.076 117.078 41.34C117.078 40.5427 117.047 39.776 116.986 39.04C116.986 38.304 116.986 37.568 116.986 36.832V35.176ZM142.857 27.172C142.857 26.068 143.255 25.516 144.053 25.516C145.279 25.516 146.537 25.792 147.825 26.344C149.113 26.8347 150.493 27.2333 151.965 27.54C156.871 17.052 162.514 10.2133 168.893 7.024C171.101 5.92 173.309 5.368 175.517 5.368C179.626 5.42933 182.386 6.41066 183.797 8.312C185.269 10.2133 186.005 12.6667 186.005 15.672C185.943 21.376 183.49 25.884 178.645 29.196C173.799 32.4467 167.881 34.256 160.889 34.624C159.11 39.3467 157.73 44.376 156.749 49.712C159.141 48.792 162.207 48.332 165.949 48.332C166.439 52.196 167.298 54.956 168.525 56.612C169.751 58.268 171.101 59.096 172.573 59.096C174.106 59.096 175.363 58.728 176.345 57.992C177.387 57.256 178.277 56.428 179.013 55.508C179.81 54.588 180.454 53.76 180.945 53.024C181.497 52.288 182.018 51.92 182.509 51.92C183.551 51.92 184.073 52.84 184.073 54.68C184.073 58.36 183.153 61.4267 181.313 63.88C179.473 66.272 176.651 67.468 172.849 67.468C166.899 67.468 162.667 65.904 160.153 62.776C161.502 76.2693 162.177 84.304 162.177 86.88C162.177 91.48 160.735 94.7613 157.853 96.724C155.461 98.38 152.394 99.208 148.653 99.208C144.973 99.208 142.397 98.3493 140.925 96.632C139.514 94.976 138.809 92.9827 138.809 90.652C138.809 75.8707 140.925 60.9973 145.157 46.032C146.506 41.248 148.039 36.7707 149.757 32.6C145.157 30.576 142.857 28.7667 142.857 27.172ZM152.057 92.124C152.793 92.124 153.467 91.5413 154.081 90.376C154.694 89.272 155.001 88.076 155.001 86.788C155.001 82.556 154.418 76.0547 153.253 67.284C151.719 73.6013 150.677 79.888 150.125 86.144C150.002 87.4933 149.941 88.3213 149.941 88.628C149.941 90.9587 150.646 92.124 152.057 92.124ZM174.781 14.476C173.554 14.476 171.867 15.6413 169.721 17.972C167.635 20.3027 165.489 23.86 163.281 28.644C167.758 26.6813 170.702 25.1787 172.113 24.136C174.995 22.112 176.437 19.6893 176.437 16.868C176.437 15.2733 175.885 14.476 174.781 14.476ZM199.351 30.668C200.087 28.9507 201.283 28.1227 202.939 28.184C204.595 28.184 206.19 29.38 207.723 31.772C209.256 34.1027 210.023 35.8507 210.023 37.016C210.023 38.7333 209.348 42.4747 207.999 48.24C206.65 53.944 205.024 59.9853 203.123 66.364C207.539 63.4813 212.415 59.28 217.751 53.76C218.548 52.9013 219.162 52.5027 219.591 52.564C220.45 52.564 220.879 53.5147 220.879 55.416C220.879 58.9733 218.855 62.8987 214.807 67.192C210.759 71.424 205.699 74.8893 199.627 77.588L197.235 85.04C195.702 89.7013 193.831 93.0747 191.623 95.16C188.74 97.8587 184.968 99.208 180.307 99.208C175.646 99.208 171.904 98.0427 169.083 95.712C166.2 93.3813 164.759 90.4987 164.759 87.064C164.759 83.6293 167.151 80.808 171.935 78.6C174.143 77.6187 176.688 76.668 179.571 75.748C182.392 74.8893 185.428 73.9387 188.679 72.896C189.292 69.6453 189.844 66.5173 190.335 63.512C190.887 59.7093 192.727 52.3493 195.855 41.432C197.327 36.648 198.492 33.06 199.351 30.668ZM211.587 1.13599C215.39 1.13599 217.966 2.57733 219.315 5.45999C219.131 9.07866 217.659 12.636 214.899 16.132C212.139 19.628 209.042 21.3453 205.607 21.284C204.012 18.7693 203.215 15.9787 203.215 12.912C203.215 9.84533 203.951 7.116 205.423 4.724C206.895 2.332 208.95 1.13599 211.587 1.13599ZM186.287 82.648C184.079 83.4453 182.178 84.0893 180.583 84.58C178.988 85.132 177.363 85.684 175.707 86.236C174.051 86.788 173.223 87.4013 173.223 88.076C173.223 89.2413 173.959 90.2533 175.431 91.112C177.271 91.7867 178.62 92.124 179.479 92.124C182.055 92.124 184.324 88.9653 186.287 82.648ZM248.596 35.176C248.596 31.0667 251.786 29.012 258.164 29.012C259.759 29.012 260.74 29.5333 261.108 30.576C261.538 31.6187 261.752 33.2133 261.752 35.36C261.752 38.3653 261.078 43.0267 259.728 49.344C258.379 55.6613 257.735 59.924 257.796 62.132C257.796 63.1747 258.134 63.696 258.808 63.696C259.728 63.696 260.863 63.1133 262.212 61.948C263.562 60.7827 264.911 59.5253 266.26 58.176C267.61 56.7653 268.836 55.4773 269.94 54.312C271.106 53.1467 271.903 52.564 272.332 52.564C273.191 52.564 273.62 53.6067 273.62 55.692C273.62 59.9853 271.504 64.1253 267.272 68.112C260.158 72.2827 255.65 74.368 253.748 74.368C253.564 74.368 253.411 74.3373 253.288 74.276C250.958 74.276 249.302 73.5093 248.32 71.976C247.4 70.4427 246.818 68.5107 246.572 66.18C245.346 68.4493 243.659 70.412 241.512 72.068C239.366 73.6627 236.912 74.46 234.152 74.46C229.307 74.46 225.566 73.54 222.928 71.7C220.352 69.86 219.064 67.1307 219.064 63.512C219.064 61.9173 219.279 60.4453 219.708 59.096C220.199 57.7467 220.966 56.0907 222.008 54.128L224.676 31.496C226.578 30.024 229.307 29.288 232.864 29.288C235.686 29.288 237.28 31.128 237.648 34.808C237.955 37.8133 237.802 40.512 237.188 42.904C236.636 45.2347 235.87 48.2093 234.888 51.828C233.907 55.3853 233.416 58.544 233.416 61.304C233.416 63.512 234.796 64.616 237.556 64.616C240.562 64.616 243.168 61.9787 245.376 56.704C247.094 52.656 248.259 48.148 248.872 43.18C248.811 42.6893 248.75 42.076 248.688 41.34C248.688 40.5427 248.658 39.776 248.596 39.04C248.596 38.304 248.596 37.568 248.596 36.832V35.176Z" fill="#F02A67"/>
</g>
<defs>
<clipPath id="clip0">
<rect width="278" height="102" fill="white"/>
</clipPath>
</defs>
</svg>
